<svg width="41" height="41" viewBox="0 0 41 41" fill="none" xmlns="http://www.w3.org/2000/svg">
<ellipse cx="20.667" cy="20.1405" rx="20" ry="20.1405" fill="#0B2DCE"/>
<path d="M13.7739 10.4921L12.0606 12.2174C10.6583 13.6296 10.2729 15.7697 11.0936 17.5879C13.4736 22.8607 17.6701 27.0867 22.9062 29.4835C24.7117 30.3099 26.8369 29.9219 28.2393 28.5096L29.9525 26.7844C30.5109 26.222 30.5109 25.3102 29.9525 24.7478L27.6478 22.427C27.2126 21.9887 26.5477 21.88 25.9971 22.1572L24.7181 22.8012C23.617 23.3556 22.2872 23.1383 21.4167 22.2617L18.265 19.0878C17.3945 18.2112 17.1787 16.8721 17.7292 15.7633L18.3688 14.4752C18.644 13.9208 18.5361 13.2513 18.1009 12.813L15.7962 10.4921C15.2378 9.92972 14.3323 9.92972 13.7739 10.4921Z" stroke="white" stroke-linejoin="round"/>
</svg>
