<svg width="29" height="28" viewBox="0 0 29 28" fill="none" xmlns="http://www.w3.org/2000/svg">
<path fill-rule="evenodd" clip-rule="evenodd" d="M11.0273 14.0393C11.0273 12.2253 12.5675 10.8057 14.3508 10.8057C16.2152 10.8057 17.6743 12.2253 17.6743 14.0393C17.6743 15.8533 16.1341 17.2729 14.3508 17.2729C12.4864 17.2729 11.0273 15.7744 11.0273 14.0393ZM12.3246 13.9605C12.3246 15.0647 13.2163 15.9323 14.3511 15.9323C15.486 15.9323 16.3776 15.0647 16.3776 13.9605C16.3776 12.8564 15.486 11.9888 14.3511 11.9888C13.2163 11.9888 12.3246 12.8564 12.3246 13.9605Z" fill="white"/>
<ellipse cx="18.4034" cy="10.096" rx="0.648479" ry="0.630952" fill="white"/>
<path fill-rule="evenodd" clip-rule="evenodd" d="M0.00301174 14.1972C-0.159108 6.46799 6.24462 0.0796005 14.1885 0.000731442C22.1324 -0.0781376 28.6982 6.23139 28.7793 13.9606C28.7793 21.6109 22.4566 27.9204 14.5938 27.9993C6.64992 28.0781 0.0840716 21.9263 0.00301174 14.1972ZM16.8636 19.8758C18.728 19.8758 20.1871 18.4562 20.1871 16.6422V11.4368C20.1871 9.62282 18.728 8.20318 16.8636 8.20318H11.5137C9.64929 8.20318 8.19021 9.62282 8.19021 11.4368V16.6422C8.19021 18.4562 9.64929 19.8758 11.5137 19.8758H16.8636Z" fill="white"/>
</svg>
