<svg width="42" height="44" viewBox="0 0 42 44" fill="none" xmlns="http://www.w3.org/2000/svg">
<ellipse cx="21" cy="22.0069" rx="21" ry="21.1475" fill="#0B2DCE"/>
<path fill-rule="evenodd" clip-rule="evenodd" d="M31.6893 15.506C30.1555 13.9277 28.0064 13.1925 25.7754 13.5263C24.303 13.7472 22.9623 14.506 21.9103 15.5656L21.3625 16.1174L20.7995 15.5513C19.7763 14.5213 18.4788 13.7783 17.0509 13.5431C14.232 13.0771 11.512 14.3335 10.0086 16.8456C9.69259 17.3737 9.4569 17.9506 9.31088 18.5496C8.71406 20.9962 9.40496 23.425 11.0896 25.1196L20.3658 33.5056C20.9322 34.0179 21.7912 34.0179 22.3581 33.5061L31.579 25.1754C34.2294 22.5084 34.2789 18.1709 31.6893 15.506Z" stroke="white" stroke-width="1.68"/>
</svg>
