<svg width="28" height="28" viewBox="0 0 28 28" fill="none" xmlns="http://www.w3.org/2000/svg">
<path fill-rule="evenodd" clip-rule="evenodd" d="M0 14C0 6.26801 6.18413 0 13.8126 0C21.4412 0 27.6253 6.26801 27.6253 14C27.6253 21.732 21.4412 28 13.8126 28C6.18413 28 0 21.732 0 14ZM13.146 16.1172L13.1456 12.5091L16.5622 14.3194L13.146 16.1172ZM20.1451 10.6093C20.5241 10.999 20.6477 11.8838 20.6477 11.8838C20.6477 11.8838 20.7742 12.9232 20.7742 13.9622V14.9366C20.7742 15.976 20.6477 17.015 20.6477 17.015C20.6477 17.015 20.5241 17.8999 20.1451 18.2895C19.7118 18.7505 19.2314 18.7981 18.9599 18.8251C18.93 18.828 18.9027 18.8307 18.8782 18.8337C17.1087 18.9637 14.4516 18.9677 14.4516 18.9677C14.4516 18.9677 11.1639 18.9372 10.1523 18.8385C10.1043 18.8294 10.0462 18.8223 9.98043 18.8143C9.66 18.7753 9.15705 18.714 8.75773 18.2895C8.37877 17.8999 8.25548 17.015 8.25548 17.015C8.25548 17.015 8.12903 15.976 8.12903 14.9366V13.9622C8.12903 12.9232 8.25548 11.8838 8.25548 11.8838C8.25548 11.8838 8.37877 10.999 8.75773 10.6093C9.19196 10.1477 9.67283 10.1005 9.94439 10.0739C9.97384 10.0711 10.0008 10.0684 10.025 10.0655C11.7945 9.93548 14.4488 9.93548 14.4488 9.93548H14.4544C14.4544 9.93548 17.1087 9.93548 18.8782 10.0655C18.9024 10.0684 18.9294 10.0711 18.9589 10.074C19.2302 10.1006 19.7113 10.1477 20.1451 10.6093Z" fill="white"/>
</svg>
