<svg width="40" height="40" viewBox="0 0 40 40" fill="none" xmlns="http://www.w3.org/2000/svg">
<circle cx="20" cy="20" r="20" fill="#0B2DCE"/>
<path d="M27.0164 27.3263H10.629C10.0726 27.3263 9.62109 26.8431 9.62109 26.2477V24.4396C9.62109 21.8177 13.6674 18.9827 18.5704 18.9827C20.3141 18.9827 22.4279 19.3976 23.7981 19.9048" stroke="white" stroke-width="1.536" stroke-linecap="round" stroke-linejoin="round"/>
<path fill-rule="evenodd" clip-rule="evenodd" d="M18.9433 16.8187C16.553 16.8187 14.6006 14.8653 14.6006 12.4755C14.6006 10.0847 16.553 8.09766 18.9433 8.09766C21.3336 8.09766 23.2865 10.0515 23.2865 12.4409C23.2865 14.8317 21.3336 16.8187 18.9433 16.8187Z" stroke="white" stroke-width="1.536" stroke-linecap="round" stroke-linejoin="round"/>
<path d="M25.5146 26.5005V32.6928C25.5146 32.9327 25.8048 33.0531 25.974 32.8834L27.8898 30.9676C27.9922 30.8652 28.1571 30.8618 28.2634 30.9603L30.3489 32.8937C30.5215 33.0531 30.8009 32.9312 30.8009 32.6962V26.5005" stroke="white" stroke-width="1.536" stroke-linecap="round" stroke-linejoin="round"/>
<path fill-rule="evenodd" clip-rule="evenodd" d="M32.6397 22.6311C32.6397 25.1063 30.6331 27.1128 28.158 27.1128C25.6823 27.1128 23.6758 25.1063 23.6758 22.6311C23.6758 20.156 25.6823 18.1494 28.158 18.1494C30.6331 18.1494 32.6397 20.156 32.6397 22.6311Z" stroke="white" stroke-width="1.536" stroke-linecap="round" stroke-linejoin="round"/>
<path fill-rule="evenodd" clip-rule="evenodd" d="M28.3612 20.5186L28.9093 21.6289C28.9419 21.6962 29.0063 21.743 29.0804 21.7533L30.3053 21.9313C30.4916 21.9586 30.5657 22.1873 30.4311 22.3184L29.5446 23.183C29.491 23.2347 29.4671 23.3102 29.4793 23.3839L29.689 24.6044C29.7202 24.7897 29.5261 24.9311 29.3593 24.8433L28.2636 24.267C28.1973 24.2323 28.1183 24.2323 28.052 24.267L26.9559 24.8433C26.7896 24.9311 26.595 24.7897 26.6267 24.6044L26.8364 23.3839C26.8486 23.3102 26.8247 23.2347 26.771 23.183L25.8841 22.3184C25.7495 22.1873 25.8241 21.9586 26.0099 21.9313L27.2353 21.7533C27.3094 21.743 27.3733 21.6962 27.4064 21.6289L27.9545 20.5186C28.0374 20.3499 28.2778 20.3499 28.3612 20.5186Z" stroke="white" stroke-width="1.536" stroke-linecap="round" stroke-linejoin="round"/>
</svg>
