<svg width="41" height="40" viewBox="0 0 41 40" fill="none" xmlns="http://www.w3.org/2000/svg">
<circle cx="20.334" cy="20" r="20" fill="#0B2DCE"/>
<path fill-rule="evenodd" clip-rule="evenodd" d="M21.0581 10.5418C20.4376 10.1281 19.6292 10.1281 19.0087 10.5418L10.3881 16.2889C9.87419 16.6315 9.56551 17.2083 9.56551 17.8259V28.8229C9.56551 29.8432 10.3926 30.6702 11.4128 30.6702H15.7231V25.1284C15.7231 23.428 17.1015 22.0496 18.8019 22.0496H21.265C22.9653 22.0496 24.3438 23.428 24.3438 25.1284V30.6702H28.6541C29.6743 30.6702 30.5014 29.8432 30.5014 28.8229V17.8259C30.5014 17.2083 30.1927 16.6315 29.6788 16.2889L21.0581 10.5418ZM18.3256 9.51708C19.3598 8.82764 20.7071 8.82764 21.7412 9.51708L30.3619 15.2642C31.2184 15.8352 31.7329 16.7965 31.7329 17.8259V28.8229C31.7329 30.5233 30.3545 31.9017 28.6541 31.9017H23.728C23.3879 31.9017 23.1122 31.6261 23.1122 31.286V25.1284C23.1122 24.1081 22.2852 23.2811 21.265 23.2811H18.8019C17.7817 23.2811 16.9546 24.1081 16.9546 25.1284V31.286C16.9546 31.6261 16.6789 31.9017 16.3389 31.9017H11.4128C9.71241 31.9017 8.33398 30.5233 8.33398 28.8229V17.8259C8.33398 16.7965 8.84846 15.8352 9.70497 15.2642L18.3256 9.51708Z" fill="white"/>
</svg>
