<svg width="28" height="28" viewBox="0 0 28 28" fill="none" xmlns="http://www.w3.org/2000/svg">
<path fill-rule="evenodd" clip-rule="evenodd" d="M0 14C0 6.26801 6.18413 0 13.8126 0C21.4412 0 27.6253 6.26801 27.6253 14C27.6253 21.732 21.4412 28 13.8126 28C6.18413 28 0 21.732 0 14Z" fill="white"/>
<path fill-rule="evenodd" clip-rule="evenodd" d="M10.0385 8.48641C10.0385 9.29675 9.43518 9.95254 8.49173 9.95254C7.58504 9.95254 6.98175 9.29675 7.00042 8.48641C6.98175 7.63669 7.58503 7 8.50981 7C9.43517 7 10.0204 7.63669 10.0385 8.48641ZM7.07627 20.5496V11.1108H9.94453V20.549H7.07627V20.5496Z" fill="#252323"/>
<path fill-rule="evenodd" clip-rule="evenodd" d="M12.2428 14.123C12.2428 12.9457 12.2049 11.942 12.167 11.112H14.6583L14.7908 12.4051H14.8474C15.2249 11.8066 16.1683 10.9001 17.697 10.9001C19.5839 10.9001 20.9993 12.1741 20.9993 14.9524V20.5508H18.1311V15.32C18.1311 14.1033 17.7162 13.2739 16.6783 13.2739C15.8854 13.2739 15.4139 13.8336 15.2255 14.3736C15.1496 14.567 15.1123 14.8367 15.1123 15.1076V20.5508H12.244V14.123H12.2428Z" fill="#252323"/>
</svg>
