<svg width="56" height="56" viewBox="0 0 56 56" fill="none" xmlns="http://www.w3.org/2000/svg">
<rect width="56" height="56" rx="28" fill="#5A646E"/>
<path fill-rule="evenodd" clip-rule="evenodd" d="M28.3033 13.8621C24.9943 13.8621 22.3122 16.5439 22.3122 19.8483V21.9196H20.8916V19.8483C20.8916 15.7627 24.2079 12.4443 28.3033 12.4443C32.3973 12.4443 35.7216 15.7546 35.7216 19.8483V21.8795H34.3011V19.8483C34.3011 16.5386 31.6136 13.8621 28.3033 13.8621Z" fill="white"/>
<path fill-rule="evenodd" clip-rule="evenodd" d="M15.5557 24.9797C15.5557 23.0982 17.0787 21.5781 18.9639 21.5781H37.602C39.4793 21.5781 41.0102 23.0971 41.0102 24.9797V40.1538C41.0102 42.0353 39.4872 43.5554 37.602 43.5554H18.9639C17.0787 43.5554 15.5557 42.0353 15.5557 40.1538V24.9797ZM18.9639 22.9959C17.8633 22.9959 16.9762 23.8812 16.9762 24.9797V40.1538C16.9762 41.2523 17.8633 42.1376 18.9639 42.1376H37.602C38.7026 42.1376 39.5897 41.2523 39.5897 40.1538V24.9797C39.5897 23.8824 38.6971 22.9959 37.602 22.9959H18.9639Z" fill="white"/>
<path d="M27.0244 32.1094V36.8066C27.0244 37.4948 27.5801 38.0494 28.2629 38.0494C28.9458 38.0494 29.5081 37.4948 29.5081 36.8066V32.1094" fill="white"/>
<path d="M30.8534 30.9935C30.8534 32.4105 29.7025 33.5593 28.2827 33.5593C26.8629 33.5593 25.7119 32.4105 25.7119 30.9935C25.7119 29.5765 26.8629 28.4277 28.2827 28.4277C29.7025 28.4277 30.8534 29.5765 30.8534 30.9935Z" fill="white"/>
</svg>
