<svg width="127" height="45" viewBox="0 0 127 45" fill="none" xmlns="http://www.w3.org/2000/svg">
<path fill-rule="evenodd" clip-rule="evenodd" d="M109.871 36.1728C109.915 36.084 109.881 36.0355 109.825 36.0215C107.385 36.9992 102.049 37.9796 98.7264 38.4788C95.8528 38.9122 93.3892 38.9848 92.0101 39.0812L91.3854 39.1319C91.3125 39.1445 91.2711 39.1906 91.26 39.2479C91.2427 39.3009 91.283 39.338 91.3239 39.3702C91.5752 39.6524 92.3854 40.4131 94.002 40.6541C95.8601 40.9129 98.6184 40.424 102.061 39.4221C104.949 38.5896 108.254 37.1534 109.871 36.1728Z" fill="white"/>
<path fill-rule="evenodd" clip-rule="evenodd" d="M110.13 37.6592C108.583 38.7261 106.487 39.7518 103.976 40.6285C101.43 41.5193 98.6892 42.2773 95.7062 42.7713C95.6496 42.7896 95.6028 42.8267 95.5879 42.8849C95.5879 42.9242 95.6028 42.9665 95.6269 42.9883C96.1173 43.3816 96.752 43.6114 97.5319 43.6955C98.4921 43.8044 99.6513 43.675 100.982 43.3235C102.166 43.006 103.297 42.4784 104.579 41.8572C105.799 41.2622 106.962 40.5706 107.95 39.8577C108.962 39.1328 109.724 38.4193 110.198 37.7937C110.204 37.7067 110.175 37.6687 110.13 37.6592Z" fill="white"/>
<path fill-rule="evenodd" clip-rule="evenodd" d="M97.606 10.1413C98.2248 10.81 99.0242 11.2901 99.9998 11.5988L100.072 11.6239C100.346 11.6979 116.605 16.0114 120.911 17.1825C122.795 17.6927 124.286 18.1015 124.984 18.3029C125.059 18.3081 125.095 18.2787 125.105 18.2336C125.105 18.1995 125.084 18.1646 125.042 18.1463C122.322 17.0447 105.566 10.5671 99.2541 8.13082L96.5968 7.09502C96.5077 7.08465 96.463 7.08929 96.4292 7.12396C96.4035 7.15261 96.3983 7.20365 96.401 7.22685C96.4238 7.45448 96.5605 8.67261 97.1021 9.50425C97.2575 9.74716 97.4262 9.9535 97.606 10.1413Z" fill="white"/>
<path fill-rule="evenodd" clip-rule="evenodd" d="M98.4545 3.8598C98.7802 4.26374 99.0892 4.52549 99.6839 4.88686C99.8823 5.00887 100.082 5.13824 100.311 5.24714L101.81 6.01328C102.663 6.44698 115.22 12.3443 117.054 13.2628C119.226 14.3384 121.393 15.369 122.342 15.8489C122.437 15.8674 122.483 15.8385 122.457 15.7274C120.119 14.2582 111.133 8.55924 104.718 4.56534L100.117 1.762L99.2761 1.24123L97.7131 0.287858C97.6264 0.255651 97.5874 0.263839 97.556 0.287858C97.5064 0.305872 97.4916 0.34845 97.4916 0.379565C97.475 0.596551 97.4561 1.78547 97.8184 2.69217C97.9863 3.09038 98.1951 3.51617 98.4545 3.8598Z" fill="white"/>
<path fill-rule="evenodd" clip-rule="evenodd" d="M109.794 40.6621C109.772 40.6594 109.738 40.6654 109.718 40.678C107.639 42.7414 104.567 43.9033 103.55 44.2188C103.492 44.2262 103.453 44.2718 103.441 44.3261C103.441 44.3766 103.478 44.4328 103.522 44.4563C103.681 44.536 104.915 45.2049 107.257 44.0116C108.59 43.3337 109.264 42.2395 109.865 40.7861C109.888 40.699 109.837 40.6654 109.794 40.6621Z" fill="white"/>
<path fill-rule="evenodd" clip-rule="evenodd" d="M124.657 23.1948C123.611 23.4931 119.626 24.5295 116.106 25.4296C113.061 26.2203 109.643 27.1606 109.643 27.1606C109.284 27.2504 109.415 27.3989 109.454 27.454C109.543 27.5992 109.742 27.9109 109.969 28.2958C110.515 29.2188 111.259 29.0996 111.924 28.8646C112.048 28.8223 124.191 23.7186 124.737 23.3482C124.831 23.2958 124.77 23.2508 124.765 23.2213C124.754 23.1845 124.689 23.1948 124.657 23.1948Z" fill="white"/>
<path fill-rule="evenodd" clip-rule="evenodd" d="M119.208 31.6545L119.131 31.6829C117.527 33.0252 115.082 35.1812 112.549 37.3529C112.308 37.5475 112.217 37.9075 112.117 38.3462C111.956 39.0705 111.587 40.019 111.587 40.019C111.516 40.2354 111.617 40.3255 111.821 40.1134C113.773 37.9946 118.096 33.1764 119.267 31.7995C119.292 31.7075 119.257 31.6622 119.208 31.6545Z" fill="white"/>
<path fill-rule="evenodd" clip-rule="evenodd" d="M126.86 20.0973C124.703 19.6955 98.4651 15.0059 98.4489 15.0059C98.4012 15.0007 98.3471 15.0294 98.3067 15.066C98.2877 15.1162 98.2999 15.1691 98.3121 15.2229C98.7375 16.5909 99.7617 17.9594 101.532 18.5115C101.737 18.5749 101.909 18.5964 102.105 18.6152C102.105 18.6152 124.355 20.0842 126.832 20.2575C126.894 20.2575 126.936 20.231 126.936 20.1871C126.936 20.1437 126.905 20.1025 126.86 20.0973Z" fill="white"/>
<path fill-rule="evenodd" clip-rule="evenodd" d="M125.857 21.5558C125.074 21.579 123.471 21.5853 121.467 21.593C119.157 21.6033 116.303 21.614 113.64 21.6189C110.064 21.6304 104.383 21.6669 104.383 21.6669C104.347 21.6721 104.302 21.6907 104.274 21.7305C104.247 21.772 104.247 21.8091 104.278 21.8463C104.352 22.0892 104.685 22.7008 105.042 23.0832C105.758 23.8302 106.533 24.2219 107.339 24.3068C107.435 24.3166 107.529 24.3166 107.627 24.3166C107.723 24.3166 107.817 24.3032 107.928 24.2855C108.035 24.2721 124.947 21.8727 125.863 21.7253C125.904 21.7172 125.934 21.6849 125.943 21.6508C125.943 21.6058 125.904 21.5583 125.857 21.5558Z" fill="white"/>
<path fill-rule="evenodd" clip-rule="evenodd" d="M123.287 25.6499C122.122 26.3721 119.089 28.2425 116.5 29.8117C115.048 30.6995 113.217 31.7301 112.269 32.3265C112.158 32.3961 112.069 32.3937 112.122 32.689C112.122 32.689 112.165 32.972 112.195 33.3099C112.296 34.7262 112.866 34.5701 113.716 33.9145L113.816 33.8326C116.738 31.4078 122.162 26.8077 123.344 25.8066C123.373 25.7031 123.344 25.6666 123.287 25.6499Z" fill="white"/>
<path fill-rule="evenodd" clip-rule="evenodd" d="M80.4156 25.238C80.4156 28.7327 78.4294 32.0571 74.1095 32.0571C70.2489 32.0571 67.4833 29.4418 67.6593 23.1481C67.8318 17.108 70.7176 14.4526 74.5271 14.4526C74.8257 14.4526 75.1066 14.4401 75.3782 14.416V14.4218H80.4156V25.238ZM74.3513 10.3654C68.5377 10.3735 63.0689 14.6912 62.8314 23.0979C62.6191 30.7437 66.5704 36.0971 73.2549 36.0971C78.75 36.0971 80.6793 32.2364 80.6793 32.2364C80.991 34.8201 82.3799 35.6086 85.136 35.6086V10.3654H74.3513Z" fill="white"/>
<path fill-rule="evenodd" clip-rule="evenodd" d="M37.3483 10.3654L37.3645 27.8697C37.3645 30.4247 35.2705 31.7053 32.5041 31.7053C29.5926 31.7053 27.6865 30.4247 27.6865 27.8697L27.6502 14.7728C27.6445 11.0392 25.3277 10.3654 23.2881 10.3654V28.9445C23.2881 33.6366 27.4734 35.9388 32.3622 35.9388C37.1051 35.9388 41.7467 33.6366 41.7467 28.9445L41.7426 15.3437C41.7426 11.6714 40.373 10.3654 37.3483 10.3654Z" fill="white"/>
<path fill-rule="evenodd" clip-rule="evenodd" d="M12.9023 21.6834L7.55555 20.2041C6.08408 19.7941 4.74043 19.1502 4.74043 17.3404C4.74043 15.453 5.87233 14.5316 8.24986 14.5316H13.0065C15.1095 14.5316 17.614 13.8258 17.6192 10.3777L8.66822 10.3859C3.1555 10.3917 0 13.1969 0 17.2189C0 20.962 2.3583 23.0655 6.56365 24.1933L11.2166 25.4355C13.1411 25.9581 13.8289 27.1705 13.8289 28.4154C13.8289 30.3123 12.6415 31.4565 9.75327 31.4728L0.81697 31.5433V35.621H9.90329C15.4133 35.621 18.5721 32.6372 18.5721 28.7115C18.5721 24.7583 17.0277 22.8144 12.9023 21.6834Z" fill="white"/>
<path fill-rule="evenodd" clip-rule="evenodd" d="M56.8063 10.3654C51.3891 10.3654 47.6582 13.5211 47.6582 20.02V35.6086H52.0203V19.8693C52.0203 16.5239 53.8103 14.5192 57.1821 14.5192H58.4787C62.306 14.5192 62.9299 12.524 62.9299 10.3654H56.8063Z" fill="white"/>
</svg>
